<svg xmlns="http://www.w3.org/2000/svg" viewBox="0 0 100 100" width="100" height="100">
  <defs>
    <linearGradient id="grad" x1="0%" y1="0%" x2="100%" y2="100%">
      <stop offset="0%" stop-color="#4f46e5" />
      <stop offset="100%" stop-color="#06b6d4" />
    </linearGradient>
  </defs>
  <!-- Background shape -->
  <rect width="100" height="100" rx="24" fill="url(#grad)" />
  <!-- Brain shape outline -->
  <path d="M50 25 C40 25, 30 32, 30 45 C30 55, 40 58, 43 65 C45 70, 42 75, 50 75 C58 75, 55 70, 57 65 C60 58, 70 55, 70 45 C70 32, 60 25, 50 25 Z" fill="none" stroke="#ffffff" stroke-width="6" stroke-linejoin="round" />
  <!-- Connected nodes -->
  <circle cx="50" cy="38" r="5" fill="#ffffff" />
  <circle cx="42" cy="48" r="4" fill="#ffffff" />
  <circle cx="58" cy="48" r="4" fill="#ffffff" />
  <circle cx="50" cy="58" r="5" fill="#ffffff" />
  <!-- Connection lines -->
  <line x1="50" y1="38" x2="42" y2="48" stroke="#ffffff" stroke-width="2" opacity="0.8" />
  <line x1="50" y1="38" x2="58" y2="48" stroke="#ffffff" stroke-width="2" opacity="0.8" />
  <line x1="50" y1="58" x2="42" y2="48" stroke="#ffffff" stroke-width="2" opacity="0.8" />
  <line x1="50" y1="58" x2="58" y2="48" stroke="#ffffff" stroke-width="2" opacity="0.8" />
  <line x1="50" y1="38" x2="50" y2="58" stroke="#ffffff" stroke-width="2.5" opacity="0.8" />
</svg>